<svg width="10" height="14" viewBox="0 0 10 14" fill="none" xmlns="http://www.w3.org/2000/svg">
<path d="M3.5 4.2C3.5 4.01435 3.57375 3.8363 3.70503 3.70503C3.8363 3.57375 4.01435 3.5 4.2 3.5C4.38565 3.5 4.5637 3.57375 4.69497 3.70503C4.82625 3.8363 4.9 4.01435 4.9 4.2V7.329L5.747 7.42L9.205 8.953C9.576 9.121 9.8 9.492 9.8 9.898V12.95C9.779 13.524 9.324 13.979 8.75 14H4.2C3.934 14 3.682 13.895 3.5 13.699L0.0699999 10.759L0.588 10.22C0.721 10.073 0.91 9.996 1.106 9.996H1.26L3.5 11.2V4.2ZM4.2 1.4C4.94261 1.4 5.6548 1.695 6.1799 2.2201C6.705 2.7452 7 3.45739 7 4.2C7 5.25 6.44 6.139 5.6 6.622V5.768C6.027 5.383 6.3 4.823 6.3 4.2C6.3 3.64305 6.07875 3.1089 5.68492 2.71508C5.2911 2.32125 4.75695 2.1 4.2 2.1C3.64305 2.1 3.1089 2.32125 2.71508 2.71508C2.32125 3.1089 2.1 3.64305 2.1 4.2C2.1 4.823 2.373 5.383 2.8 5.768V6.622C1.96 6.139 1.4 5.25 1.4 4.2C1.4 3.45739 1.695 2.7452 2.2201 2.2201C2.7452 1.695 3.45739 1.4 4.2 1.4ZM4.2 0C5.31391 0 6.3822 0.442499 7.16985 1.23015C7.9575 2.0178 8.4 3.08609 8.4 4.2C8.4 5.39 7.903 6.461 7.112 7.231L6.412 6.916C7.196 6.272 7.7 5.292 7.7 4.2C7.7 3.27174 7.33125 2.3815 6.67487 1.72513C6.0185 1.06875 5.12826 0.7 4.2 0.7C3.27174 0.7 2.3815 1.06875 1.72513 1.72513C1.06875 2.3815 0.7 3.27174 0.7 4.2C0.7 5.635 1.561 6.867 2.8 7.406V8.162C1.169 7.581 0 6.027 0 4.2C0 3.08609 0.442499 2.0178 1.23015 1.23015C2.0178 0.442499 3.08609 0 4.2 0Z" fill="#5D5D5D"/>
</svg>
