<svg width="9" height="10" viewBox="0 0 9 10" fill="none" xmlns="http://www.w3.org/2000/svg">
<path d="M3.09375 5C3.09375 4.22656 3.70898 3.59375 4.5 3.59375C5.27344 3.59375 5.90625 4.22656 5.90625 5C5.90625 5.79102 5.27344 6.40625 4.5 6.40625C3.70898 6.40625 3.09375 5.79102 3.09375 5ZM4.5 0.5C4.79883 0.5 5.0625 0.763672 5.0625 1.0625V1.67773C6.46875 1.92383 7.57617 3.03125 7.82227 4.4375H8.4375C8.73633 4.4375 9 4.70117 9 5C9 5.31641 8.73633 5.5625 8.4375 5.5625H7.82227C7.57617 6.98633 6.46875 8.09375 5.0625 8.33984V8.9375C5.0625 9.25391 4.79883 9.5 4.5 9.5C4.18359 9.5 3.9375 9.25391 3.9375 8.9375V8.33984C2.51367 8.09375 1.40625 6.98633 1.16016 5.5625H0.5625C0.246094 5.5625 0 5.31641 0 5C0 4.70117 0.246094 4.4375 0.5625 4.4375H1.16016C1.40625 3.03125 2.51367 1.92383 3.9375 1.67773V1.0625C3.9375 0.763672 4.18359 0.5 4.5 0.5ZM2.25 5C2.25 6.24805 3.25195 7.25 4.5 7.25C5.73047 7.25 6.75 6.24805 6.75 5C6.75 3.76953 5.73047 2.75 4.5 2.75C3.25195 2.75 2.25 3.76953 2.25 5Z" fill="white"/>
</svg>
