<svg width="34" height="33" viewBox="0 0 34 33" fill="none" xmlns="http://www.w3.org/2000/svg">
<rect y="0.400024" width="34" height="32" rx="8" fill="#C14702"/>
<path d="M17 10.9C17.6962 10.9 18.3639 11.1798 18.8562 11.6777C19.3484 12.1756 19.625 12.851 19.625 13.5552C19.625 14.2594 19.3484 14.9347 18.8562 15.4327C18.3639 15.9306 17.6962 16.2104 17 16.2104C16.3038 16.2104 15.6361 15.9306 15.1438 15.4327C14.6516 14.9347 14.375 14.2594 14.375 13.5552C14.375 12.851 14.6516 12.1756 15.1438 11.6777C15.6361 11.1798 16.3038 10.9 17 10.9ZM11.75 12.7966C12.17 12.7966 12.56 12.9104 12.8975 13.1152C12.785 14.2 13.1 15.2773 13.745 16.1193C13.37 16.8476 12.62 17.3483 11.75 17.3483C11.1533 17.3483 10.581 17.1085 10.159 16.6817C9.73705 16.2549 9.5 15.676 9.5 15.0724C9.5 14.4688 9.73705 13.89 10.159 13.4632C10.581 13.0364 11.1533 12.7966 11.75 12.7966ZM22.25 12.7966C22.8467 12.7966 23.419 13.0364 23.841 13.4632C24.2629 13.89 24.5 14.4688 24.5 15.0724C24.5 15.676 24.2629 16.2549 23.841 16.6817C23.419 17.1085 22.8467 17.3483 22.25 17.3483C21.38 17.3483 20.63 16.8476 20.255 16.1193C20.9 15.2773 21.215 14.2 21.1025 13.1152C21.44 12.9104 21.83 12.7966 22.25 12.7966ZM12.125 20.5724C12.125 19.0021 14.3075 17.7276 17 17.7276C19.6925 17.7276 21.875 19.0021 21.875 20.5724V21.9H12.125V20.5724ZM8 21.9V20.7621C8 19.7076 9.4175 18.82 11.3375 18.5621C10.895 19.078 10.625 19.7911 10.625 20.5724V21.9H8ZM26 21.9H23.375V20.5724C23.375 19.7911 23.105 19.078 22.6625 18.5621C24.5825 18.82 26 19.7076 26 20.7621V21.9Z" fill="white"/>
</svg>
