<svg width="27" height="27" viewBox="0 0 27 27" fill="none" xmlns="http://www.w3.org/2000/svg">
<rect y="0.25" width="27" height="26" rx="8" fill="#C14702"/>
<path d="M13.5 8.3125C16.5293 8.3125 18.9785 10.332 18.9785 12.7812C18.9785 15.2305 16.5508 17.25 13.5 17.25C12.6836 17.25 11.9102 17.0781 11.2012 16.8203C10.6426 17.25 9.61133 17.9375 8.17188 17.9375C8.10742 17.9375 8.04297 17.8945 8.02148 17.8301C8 17.7656 8 17.6797 8.06445 17.6367C8.06445 17.6367 8.9668 16.6699 9.22461 15.5742C8.47266 14.8223 8 13.834 8 12.7812C8 10.3105 10.4492 8.3125 13.5 8.3125ZM10.7285 13.4688C11.1152 13.4688 11.416 13.168 11.416 12.7812C11.416 12.416 11.0938 12.0938 10.7285 12.0938C10.3418 12.0938 10.041 12.4375 10.041 12.7812C10.041 13.1465 10.3418 13.4688 10.7285 13.4688ZM13.5 13.4688C13.8652 13.4688 14.166 13.168 14.166 12.7812C14.166 12.416 13.8438 12.0938 13.5 12.0938C13.1348 12.0938 12.8125 12.4375 12.8125 12.7812C12.8125 13.1465 13.1133 13.4688 13.5 13.4688ZM16.2285 13.4688C16.6152 13.4688 16.916 13.168 16.916 12.7812C16.916 12.416 16.5938 12.0938 16.2285 12.0938C15.8418 12.0938 15.541 12.4375 15.541 12.7812C15.541 13.1465 15.8418 13.4688 16.2285 13.4688Z" fill="white"/>
</svg>
