<svg width="16" height="14" viewBox="0 0 16 14" fill="none" xmlns="http://www.w3.org/2000/svg">
<path d="M16 12.4444H0V14H16V12.4444ZM1.6 9.33333C1.6 9.72222 1.76 10.1111 2.08 10.4222C2.4 10.7333 2.8 10.8889 3.2 10.8889V2.33333C2.8 2.33333 2.4 2.48889 2.08 2.8C1.76 3.11111 1.6 3.5 1.6 3.88889V9.33333ZM9.2 2.33333H6.8C6.8 2.02222 6.88 1.71111 7.12 1.47778C7.36 1.24444 7.6 1.16667 8 1.16667C8.32 1.16667 8.64 1.24444 8.88 1.47778C9.04 1.71111 9.2 2.02222 9.2 2.33333ZM4 2.33333V10.8889H12V2.33333H10.4C10.4 1.71111 10.16 1.16667 9.68 0.7C9.2 0.233333 8.64 0 8 0C7.36 0 6.8 0.233333 6.32 0.7C5.84 1.16667 5.6 1.71111 5.6 2.33333H4ZM12.8 10.8889C13.2 10.8889 13.6 10.7333 13.92 10.4222C14.24 10.1111 14.4 9.72222 14.4 9.33333V3.88889C14.4 3.5 14.24 3.11111 13.92 2.8C13.6 2.48889 13.2 2.33333 12.8 2.33333V10.8889Z" fill="#C14702"/>
</svg>
