<svg width="13" height="14" viewBox="0 0 13 14" fill="none" xmlns="http://www.w3.org/2000/svg">
<path d="M12.7273 4.45455V10.1818C12.7273 10.8818 12.1545 11.4545 11.4545 11.4545H2.54545L0 14V2.54545C0 1.84545 0.572727 1.27273 1.27273 1.27273H7.7C7.63636 1.46364 7.63636 1.71818 7.63636 1.90909C7.63636 3.69091 9.03636 5.09091 10.8182 5.09091C11.5182 5.09091 12.2182 4.83636 12.7273 4.45455ZM8.90909 1.90909C8.90909 2.99091 9.73636 3.81818 10.8182 3.81818C11.9 3.81818 12.7273 2.99091 12.7273 1.90909C12.7273 0.827273 11.9 0 10.8182 0C9.73636 0 8.90909 0.827273 8.90909 1.90909Z" fill="#5D5D5D"/>
</svg>
