<svg width="8" height="14" viewBox="0 0 8 14" fill="none" xmlns="http://www.w3.org/2000/svg">
<path d="M0 9.33333H1.55556C1.55556 10.1733 2.62111 10.8889 3.88889 10.8889C5.15667 10.8889 6.22222 10.1733 6.22222 9.33333C6.22222 8.47778 5.41333 8.16667 3.70222 7.75444C2.05333 7.34222 0 6.82889 0 4.66667C0 3.27444 1.14333 2.09222 2.72222 1.69556V0H5.05556V1.69556C6.63444 2.09222 7.77778 3.27444 7.77778 4.66667H6.22222C6.22222 3.82667 5.15667 3.11111 3.88889 3.11111C2.62111 3.11111 1.55556 3.82667 1.55556 4.66667C1.55556 5.52222 2.36444 5.83333 4.07556 6.24556C5.72444 6.65778 7.77778 7.17111 7.77778 9.33333C7.77778 10.7256 6.63444 11.9078 5.05556 12.3044V14H2.72222V12.3044C1.14333 11.9078 0 10.7256 0 9.33333Z" fill="#5D5D5D"/>
</svg>
