<svg width="10" height="14" viewBox="0 0 10 14" fill="none" xmlns="http://www.w3.org/2000/svg">
<path d="M5 0C7.06875 0 8.75 1.77333 8.75 3.96667C8.75 6.94 5 11.3333 5 11.3333C5 11.3333 1.25 6.94 1.25 3.96667C1.25 1.77333 2.93125 0 5 0ZM5 2.66667C4.66848 2.66667 4.35054 2.80714 4.11612 3.05719C3.8817 3.30724 3.75 3.64638 3.75 4C3.75 4.35362 3.8817 4.69276 4.11612 4.94281C4.35054 5.19286 4.66848 5.33333 5 5.33333C5.33152 5.33333 5.64946 5.19286 5.88388 4.94281C6.1183 4.69276 6.25 4.35362 6.25 4C6.25 3.64638 6.1183 3.30724 5.88388 3.05719C5.64946 2.80714 5.33152 2.66667 5 2.66667ZM10 11.3333C10 12.8067 7.7625 14 5 14C2.2375 14 0 12.8067 0 11.3333C0 10.4733 0.7625 9.70667 1.94375 9.22L2.34375 9.82667C1.66875 10.1267 1.25 10.54 1.25 11C1.25 11.92 2.93125 12.6667 5 12.6667C7.06875 12.6667 8.75 11.92 8.75 11C8.75 10.54 8.33125 10.1267 7.65625 9.82667L8.05625 9.22C9.2375 9.70667 10 10.4733 10 11.3333Z" fill="white"/>
</svg>
