<svg width="14" height="16" viewBox="0 0 14 16" fill="none" xmlns="http://www.w3.org/2000/svg">
<path d="M6.22222 0C2.78444 0 0 0.388889 0 3.11111V10.8889C0.00175127 11.2151 0.0718738 11.5373 0.205842 11.8347C0.33981 12.1321 0.534646 12.3981 0.777778 12.6156V14C0.777778 14.2063 0.859722 14.4041 1.00558 14.55C1.15145 14.6958 1.34928 14.7778 1.55556 14.7778H2.33333C2.53961 14.7778 2.73744 14.6958 2.88331 14.55C3.02917 14.4041 3.11111 14.2063 3.11111 14V13.2222H7.77778C7.31278 12.3866 7.04663 11.4551 7 10.5C7.00693 9.81124 7.17857 9.13413 7.50061 8.52525C7.82264 7.91637 8.2857 7.39339 8.85111 7H1.55556V3.11111H10.8889V6.22222C11.0184 6.21425 11.1483 6.21425 11.2778 6.22222C11.6728 6.22348 12.0657 6.2811 12.4444 6.39333V3.11111C12.4444 0.388889 9.66 0 6.22222 0ZM2.72222 9.33333C2.95297 9.33333 3.17853 9.40176 3.37039 9.52995C3.56224 9.65815 3.71178 9.84036 3.80008 10.0535C3.88838 10.2667 3.91149 10.5013 3.86647 10.7276C3.82146 10.9539 3.71034 11.1618 3.54718 11.325C3.38402 11.4881 3.17614 11.5992 2.94983 11.6442C2.72352 11.6893 2.48894 11.6662 2.27576 11.5779C2.06258 11.4896 1.88037 11.34 1.75217 11.1482C1.62398 10.9563 1.55556 10.7307 1.55556 10.5C1.55556 10.1906 1.67847 9.89383 1.89726 9.67504C2.11606 9.45625 2.4128 9.33333 2.72222 9.33333ZM11.2778 7.77778C10.5583 7.78586 9.87059 8.07526 9.36182 8.58404C8.85304 9.09281 8.56364 9.78053 8.55556 10.5C8.55556 12.5222 11.2778 15.5556 11.2778 15.5556C11.2778 15.5556 14 12.5222 14 10.5C13.9919 9.78053 13.7025 9.09281 13.1937 8.58404C12.685 8.07526 11.9972 7.78586 11.2778 7.77778ZM11.2778 11.5111C11.0302 11.5111 10.7928 11.4128 10.6178 11.2377C10.4428 11.0627 10.3444 10.8253 10.3444 10.5778C10.3444 10.3302 10.4428 10.0928 10.6178 9.91781C10.7928 9.74278 11.0302 9.64444 11.2778 9.64444C11.5199 9.66082 11.7479 9.76441 11.9195 9.93603C12.0911 10.1076 12.1947 10.3356 12.2111 10.5778C12.2166 10.7018 12.1963 10.8256 12.1513 10.9414C12.1064 11.0571 12.0378 11.1622 11.95 11.25C11.8622 11.3378 11.7571 11.4064 11.6414 11.4513C11.5256 11.4963 11.4018 11.5166 11.2778 11.5111Z" fill="white"/>
</svg>
