<svg width="12" height="16" viewBox="0 0 12 16" fill="none" xmlns="http://www.w3.org/2000/svg">
<path d="M0 11.2H2.4V16H0V11.2ZM12 0.312C11.936 1.488 11.64 2.504 11.088 3.368C10.536 4.232 9.776 4.8 8.8 5.112V16H7.2V11.2H5.6V16H4V6.464C3.776 6.536 3.6 6.624 3.512 6.728C2.76 7.328 2.4 8.152 2.4 9.2V9.6H0.8V9.2C0.8 7.624 1.376 6.352 2.504 5.376C3.624 4.448 4.928 4 6.4 4C7.528 4 8.448 3.712 9.176 3.16C10 2.488 10.4 1.56 10.4 0.4V0H12V0.312ZM6.4 0C6.82435 0 7.23131 0.168571 7.53137 0.468629C7.83143 0.768687 8 1.17565 8 1.6C8 2.02435 7.83143 2.43131 7.53137 2.73137C7.23131 3.03143 6.82435 3.2 6.4 3.2C5.97565 3.2 5.56869 3.03143 5.26863 2.73137C4.96857 2.43131 4.8 2.02435 4.8 1.6C4.8 1.17565 4.96857 0.768687 5.26863 0.468629C5.56869 0.168571 5.97565 0 6.4 0Z" fill="white"/>
</svg>
