<svg width="10" height="10" viewBox="0 0 10 10" fill="none" xmlns="http://www.w3.org/2000/svg">
<path d="M7.77778 0H2.22222C0.994444 0 0 0.994444 0 2.22222V7.77778C0 9.00556 0.994444 10 2.22222 10H8.88889C9.50556 10 10 9.50556 10 8.88889V3.33333C10 2.72222 9.50556 2.22222 8.88889 2.22222V1.11111C8.88889 0.5 8.39444 0 7.77778 0ZM7.77778 1.11111V2.22222H2.22222C1.81667 2.22222 1.43889 2.33333 1.11111 2.52222V2.22222C1.11111 1.61111 1.61111 1.11111 2.22222 1.11111M6.94444 6.94444C6.48333 6.94444 6.11111 6.57222 6.11111 6.11111C6.11111 5.65 6.48333 5.27778 6.94444 5.27778C7.40556 5.27778 7.77778 5.65 7.77778 6.11111C7.77778 6.57222 7.40556 6.94444 6.94444 6.94444Z" fill="white"/>
</svg>
